<?xml version="1.0" encoding="UTF-8"?>
<svg width="400" height="200" version="1.1" xmlns="http://www.w3.org/2000/svg">
  <marker id="a" overflow="visible" orient="auto">
    <path transform="scale(-.2)" d="m5.77 0-8.65 5v-10z" fill-rule="evenodd" stroke="#000"/>
  </marker>
  <g stroke="#000" stroke-width="3">
    <rect x="88" y="127" width="100" height="40" rx="5" ry="5" fill="#e2e2e2"/>
    <path d="m170 127.42v-22.421"/>
    <path d="m64.999 40v35"/>
    <path d="m95 40v35"/>
    <path d="m125 40v35"/>
    <path d="m155 40v35"/>
    <path d="m185 40v35"/>
    <path d="m215 40v35"/>
    <path d="m245 40v35"/>
    <path d="m275 40v35"/>
    <path d="m305 40v35"/>
    <path d="m335 40v35"/>
  </g>
  <g fill-rule="evenodd" stroke="#000">
    <path d="m157 105v-20l5-5h16l5 5v20z"/>
    <path d="m144 90h13.001" fill="#f00" marker-start="url(#a)" stroke-width="6"/>
    <path d="m196 90h-12.999" fill="#f00" marker-start="url(#a)" stroke-width="6"/>
  </g>
  <g stroke="#000" stroke-linecap="round" stroke-width="5">
    <path d="m50 40h300"/>
    <path d="m50 75h300"/>
  </g>
  <g font-family="DejaVu Sans" font-size="15">
    <text x="49" y="34">Band mit Feldern</text>
    <text x="189" y="116">Lese-/Schreibkopf</text>
    <text x="138" y="152" text-anchor="middle">Programm</text>
  </g>
</svg>
